<svg xmlns="http://www.w3.org/2000/svg" viewBox="0 0 512 512">
  <defs>
    <linearGradient id="grad1" x1="0%" y1="0%" x2="100%" y2="100%">
      <stop offset="0%" style="stop-color:#00f3ff;stop-opacity:1" />
      <stop offset="100%" style="stop-color:#bc13fe;stop-opacity:1" />
    </linearGradient>
  </defs>
  <circle cx="256" cy="256" r="240" fill="#0f172a" stroke="url(#grad1)" stroke-width="20"/>
  <path d="M160 120 h 200 a 20 20 0 0 1 20 20 v 40 a 20 20 0 0 1 -20 20 h -140 v 60 h 100 a 20 20 0 0 1 20 20 v 40 a 20 20 0 0 1 -20 20 h -100 v 100 a 20 20 0 0 1 -20 20 h -40 a 20 20 0 0 1 -20 -20 v -300 a 20 20 0 0 1 20 -20 z" fill="url(#grad1)"/>
</svg>
